<?xml version="1.0" standalone="no"?>
<!DOCTYPE svg PUBLIC "-//W3C//DTD SVG 1.0//EN" "http://www.w3.org/TR/2001/REC-SVG-20010904/DTD/svg10.dtd">
<svg xmlns="http://www.w3.org/2000/svg" xmlns:xlink="http://www.w3.org/1999/xlink" id="body_1" width="120" height="90">

<g transform="matrix(1.6682113 0 0 1.6682113 12.414274 -0)">
    <path d="M51.15 45.85C 53.230003 46.336 54.397003 46.653 54.65 46.8C 54.849003 46.901 55.65 47.434 57.049 48.401L57.049 48.401L56.9 48.5C 56.766003 48.667 56.65 48.983 56.549 49.45C 56.482998 49.816 56.315998 50.116 56.049 50.349C 55.749 50.582 55.249 50.815998 54.549 51.049C 53.782 51.315998 53.249 51.499 52.949 51.599C 50.949 52.433 49.832 52.883 49.598 52.95C 46.498 53.983 42.265 54.233 36.899 53.7C 36.03 53.501 35.204998 53.285 34.422997 53.05C 34.520996 53.069 34.611996 53.085 34.697998 53.1C 36.664997 53.467 38.514 53.467 40.247997 53.1C 40.509 53.032997 40.775997 52.956997 41.047997 52.875C 42.347996 52.581 43.446995 52.073 44.347996 51.35C 44.580997 51.116997 44.830997 51.033997 45.097996 51.1C 45.364994 51.167 45.564995 51.333 45.698997 51.6C 45.719997 51.59 45.745 51.580997 45.774 51.576C 45.796997 51.563 45.822998 51.555 45.848 51.551C 47.401 50.758 48.651 49.781998 49.598 48.626C 49.659 48.551 49.717 48.475998 49.774 48.401C 49.803997 48.36 49.836998 48.318 49.873997 48.276C 50.128998 47.923 50.361996 47.557 50.573997 47.175C 50.794 46.751 50.984997 46.309998 51.149998 45.85L51.149998 45.85L51.15 45.85zM20.850002 44.125C 20.942001 44.558 21.067001 44.983 21.225002 45.4L21.225002 45.4L19.300003 45.45C 18.367002 44.95 17.734003 44.634003 17.400003 44.5L17.400003 44.5L17.100004 44.3L17.050005 44.276C 17.407005 44.372 17.707005 44.447002 17.950005 44.501C 17.970005 44.517 17.986004 44.533 18.000004 44.551C 18.047005 44.546997 18.097004 44.546997 18.150003 44.551C 18.370003 44.584 18.536003 44.600998 18.650003 44.600998C 19.183002 44.635 19.767004 44.534996 20.400003 44.301C 20.411003 44.272 20.420004 44.238 20.425003 44.201C 20.568003 44.181 20.710003 44.155 20.850002 44.125zM33.225002 52.75C 33.117 52.775 33.026 52.825 32.951004 52.9C 32.749004 52.798 32.583004 52.673 32.451004 52.525C 32.720005 52.611 32.979004 52.687 33.225002 52.75z" stroke="none" fill="none" />
    <path d="M26.9 5.3C 27.871 6.1850004 28.605 7.0270004 29.1 7.8250003L29.1 7.8250003L29.050001 7.8500004C 28.699001 7.28 28.233002 6.6800003 27.650002 6.05C 27.410002 5.795 27.160002 5.545 26.900002 5.3L26.900002 5.3L26.9 5.3zM19.599998 0.7000003L18.949999 0.5500003C 18.883999 0.5310003 18.817 0.5150003 18.749998 0.5000003C 19.027998 0.5540003 19.310999 0.6210003 19.599998 0.7000003zM0.44999886 14.550001C 0.24999885 14.160001 0.11699885 13.744001 0.04999885 13.300001C -0.25000116 11.300001 0.7169988 8.950001 2.9499989 6.250001C 5.1169987 3.683001 7.316999 2.0170012 9.549999 1.250001C 11.917 0.45000094 13.849999 0.033000946 15.349999 9.536743E-07C 15.830999 9.536743E-07 16.365 0.042000953 16.949999 0.12500095C 16.547998 0.07500096 16.164999 0.05000095 15.799999 0.05000095C 14.699999 0.01700095 13.417 0.18300095 11.949999 0.55000097L11.949999 0.55000097L11.949999 0.75000095C 12.415998 0.817001 13.082999 0.767001 13.949999 0.600001C 14.849998 0.400001 15.515999 0.317001 15.949999 0.35000098C 15.882998 0.650001 15.949999 0.817001 16.15 0.850001C 16.483 0.850001 16.682999 0.88300097 16.75 0.950001C 16.917 1.117001 16.983 1.233001 16.95 1.300001C 16.917 1.467001 16.933 1.6330011 17 1.800001C 17.033 1.8340011 17.183 1.917001 17.45 2.0500011C 17.650002 2.117001 17.7 2.2830012 17.6 2.5500011C 17.567 2.683001 17.317001 2.8000011 16.85 2.900001C 16.416 2.967001 16.183 3.133001 16.15 3.400001C 16.317 3.433001 16.699999 3.500001 17.3 3.600001C 17.834 3.700001 18.15 3.867001 18.25 4.1000013C 18.317 4.233001 18.283 4.517001 18.15 4.9500012L18.15 4.9500012L18.35 5.150001L16.65 5.2000012C 16.717 5.367001 16.782999 5.6000013 16.85 5.900001C 15.817 6.1670012 14.6 6.183001 13.200001 5.9500012C 13.233001 6.150001 13.183001 6.300001 13.050001 6.400001C 12.850001 6.467001 12.6830015 6.517001 12.550001 6.550001L12.550001 6.550001L10.500001 7.150001C 9.100001 7.483001 8.1 7.767001 7.500001 8.000001C 7.167001 8.100001 5.817001 8.750001 3.4500008 9.950001C 3.2170007 10.250001 2.8000007 10.650001 2.2000008 11.150001C 1.6000009 11.650001 1.1830008 12.033001 0.95000076 12.3C 0.7170008 12.6 0.5830008 12.95 0.5500008 13.35C 0.5170008 13.583 0.5000008 13.967 0.5000008 14.5L0.5000008 14.5L0.45000076 14.55zM14.449999 1.5500011C 13.716999 1.4840012 13.232999 1.5500011 12.999999 1.7500012C 12.766999 1.6830012 12.666999 1.7830012 12.699999 2.0500011C 12.765999 2.317001 12.966999 2.4840012 13.299999 2.5500011C 14.132999 2.7830012 14.516999 2.4500012 14.449999 1.5500011zM11.049999 3.900001C 9.349999 4.833001 8.733 5.550001 9.199999 6.050001C 9.0669985 6.150001 8.582999 6.367001 7.749999 6.7000012C 7.116999 6.9670014 6.732999 7.267001 6.599999 7.6000013C 8.266999 7.767001 10.232999 7.0000014 12.499999 5.300001C 13.066999 4.867001 13.399999 4.517001 13.499999 4.250001C 13.599999 3.8500009 13.216999 3.667001 12.349999 3.700001L12.349999 3.700001L12.299999 3.650001L11.4 3.700001L11.099999 3.900001L10.599999 3.600001C 10.867 3.433001 11.316999 3.233001 11.95 3.000001C 11.083 3.0670009 10.467 3.033001 10.099999 2.900001C 10.367 2.533001 10.966999 2.2670012 11.9 2.100001C 11.7 2.100001 11.584 2.0170012 11.549999 1.8500011C 11.516999 1.617001 11.466999 1.4670011 11.4 1.400001C 11.334 1.3340011 10.983 1.300001 10.349999 1.300001L10.349999 1.300001L10.15 1.200001C 9.217 1.833001 8.516999 2.283001 8.049999 2.5500011C 7.116999 3.0170012 6.332999 3.567001 5.6999993 4.2000012L5.6999993 4.2000012L5.899999 4.3500013L5.649999 4.7500014L6.249999 4.8000016L5.049999 5.5500016C 5.3169994 5.6170015 5.8829994 5.5000014 6.749999 5.2000017C 7.216999 5.033002 7.799999 4.817002 8.499999 4.5500016C 9.699999 4.1830015 10.549999 3.9670017 11.049999 3.9000015zM6.299999 6.000001L5.649999 6.000001C 5.5169992 6.167001 5.4829993 6.383001 5.549999 6.650001C 6.649999 6.750001 7.1669993 6.517001 7.0999994 5.9500012C 6.7669992 5.8500013 6.4999995 5.867001 6.299999 6.0000014zM3.8499992 6.450001C 3.2829993 6.383001 2.8669991 6.6500006 2.5999992 7.250001L2.5999992 7.250001L2.949999 7.350001C 2.6169991 7.683001 2.3669991 7.950001 2.199999 8.150001C 1.9329991 8.450001 1.7999991 8.750001 1.7999991 9.05C 2.199999 9.083 2.6329992 8.833 3.099999 8.3C 3.7329988 7.5670004 4.099999 7.1670003 4.199999 7.1000004C 4.632999 7.0670004 4.8669987 6.9500003 4.8999987 6.7500005C 4.9999986 6.3500004 4.7999988 6.2170005 4.2999988 6.3500004L4.2999988 6.3500004L3.8499987 6.4500003zM4.1999993 8.650001C 4.5329995 8.750001 4.8169994 8.667001 5.049999 8.400001C 5.249999 8.133 5.3169994 7.8340006 5.249999 7.5000005L5.249999 7.5000005L4.799999 7.6000004C 4.399999 8 4.1999993 8.35 4.1999993 8.650001zM3.5749993 17.2C 2.5149994 16.726 1.6899993 16.159 1.0999994 15.500001C 1.4329994 15.833001 1.8499994 16.167002 2.3499994 16.5L2.3499994 16.5L2.6499994 16.7C 2.9479995 16.876001 3.2559993 17.042 3.5749993 17.2z" stroke="none" fill="#A37732" fill-rule="nonzero" />
    <path d="M1.1 15.5C 0.83500004 15.202 0.619 14.886 0.45000005 14.55L0.45000005 14.55L0.50000006 14.5C 0.50000006 13.967 0.5170001 13.583 0.5500001 13.35C 0.58400005 12.950001 0.71700007 12.6 0.95000005 12.3C 1.1830001 12.033 1.6 11.650001 2.2 11.150001C 2.8000002 10.650001 3.217 10.250001 3.45 9.950001C 5.8170004 8.750001 7.167 8.1 7.5 8.000001C 8.1 7.767001 9.1 7.4830008 10.5 7.150001L10.5 7.150001L12.55 6.550001C 12.683001 6.517001 12.85 6.467001 13.05 6.400001C 13.183001 6.300001 13.234 6.150001 13.2 5.9500012C 14.599999 6.183001 15.816999 6.1660013 16.85 5.900001C 16.783 5.600001 16.717001 5.367001 16.65 5.2000012L16.65 5.2000012L18.35 5.150001L18.15 4.9500012C 18.282999 4.516001 18.317 4.233001 18.25 4.1000013C 18.15 3.8670013 17.833 3.7000012 17.3 3.6000013C 16.699999 3.5000014 16.317 3.4330013 16.15 3.4000013C 16.183 3.1330013 16.417 2.9670012 16.85 2.9000013C 17.317001 2.8000014 17.567001 2.6830013 17.6 2.5500014C 17.7 2.2830014 17.65 2.1170013 17.45 2.0500014C 17.183 1.9170014 17.033 1.8330014 17 1.8000014C 16.933 1.6330013 16.917 1.4670014 16.95 1.3000014C 16.983002 1.2340014 16.916 1.1170014 16.75 0.95000136C 16.683 0.8830013 16.483 0.85000134 16.15 0.85000134C 15.95 0.81700134 15.882999 0.65000135 15.95 0.35000134C 15.516 0.31700134 14.849999 0.40000135 13.95 0.60000134C 13.083 0.76700133 12.415999 0.81700134 11.95 0.7500013L11.95 0.7500013L11.95 0.5500013C 13.415999 0.18300131 14.7 0.01700133 15.799999 0.050001323C 16.164999 0.050001323 16.549 0.07500132 16.949999 0.12500133C 17.335 0.18200132 17.742998 0.25700134 18.175 0.35000134L18.175 0.35000134L18.75 0.5000013C 18.817 0.5150013 18.884 0.5310013 18.95 0.5500013C 19.25 0.7500013 19.383001 0.9330013 19.35 1.1000013C 19.683 1.3330014 20.2 1.5330013 20.9 1.7000014C 21.667 1.9000014 22.199999 2.0830014 22.5 2.2500014C 22.4 2.3830013 22.35 2.4830015 22.35 2.5500014L22.35 2.5500014L22.5 2.8500013L20.7 2.9000013C 20.833 3.0330012 21.2 3.1830013 21.800001 3.3500013C 22.334002 3.5170014 22.683 3.7330012 22.85 4.0000014C 22.683 4.0670013 22.550001 4.1170015 22.45 4.1500015C 22.45 4.4170017 22.617 4.6500015 22.95 4.8500013C 22.817001 4.8830013 22.400002 4.8500013 21.7 4.7500014C 21.933 5.0830016 22.083 5.2670016 22.150002 5.3000016C 21.95 5.3670015 21.617 5.4000015 21.150002 5.4000015L21.150002 5.4000015L21.250002 6.3000016C 17.283 6.600002 14.233002 6.9670014 12.100002 7.4000015C 8.700003 8.100001 5.8500023 9.1830015 3.550002 10.650002C 2.2500021 11.483002 1.4840021 12.417002 1.2500021 13.450002C 1.0500021 14.317001 1.0000021 15.000002 1.1000022 15.500002L1.1000022 15.500002L1.1 15.5z" stroke="none" fill="#916A30" fill-rule="nonzero" />
    <path d="M19.6 0.7C 20.836 1.073 22.186 1.756 23.650002 2.75L23.650002 2.75L24.750002 4.55C 24.783003 4.617 24.767002 4.767 24.700003 5C 24.800003 5.133 25.033003 5.217 25.400003 5.25L25.400003 5.25L25.600004 5.9C 25.467005 6.133 25.400003 6.3 25.400003 6.4C 25.233004 6.5 24.733004 6.55 23.900003 6.55C 23.867002 6.783 24.350004 7.05 25.350004 7.3500004C 26.483004 7.6500006 27.117004 7.8670006 27.250004 8C 27.428003 8.146 27.586004 8.304 27.725004 8.475C 27.249004 8.699 26.741005 8.941 26.200005 9.200001L26.200005 9.200001L26.175005 9.200001C 25.863005 9.027 25.505005 8.861001 25.100004 8.700001C 22.666004 7.700001 19.317005 7.4000006 15.050004 7.8000007C 11.050004 8.167001 7.750004 9.117001 5.1500044 10.650001C 3.0500045 11.883 2.0000043 12.983001 2.0000043 13.950001C 2.0000043 14.783001 2.8500042 15.617001 4.550004 16.45C 4.990004 16.658 5.448004 16.842001 5.925004 17L5.925004 17L5.950004 18.025C 5.089004 17.810999 4.298004 17.536 3.575004 17.199999C 3.256004 17.041998 2.9480042 16.876 2.6500041 16.699999L2.6500041 16.699999L2.3500042 16.499998C 1.8500042 16.166998 1.4330041 15.832998 1.1000042 15.499998C 1.0000042 14.999998 1.0500042 14.3169985 1.2500042 13.449998C 1.4830042 12.4159975 2.2500043 11.482998 3.550004 10.649998C 5.850004 9.182998 8.700005 8.0999975 12.100004 7.3999977C 14.233004 6.9669976 17.283005 6.5999975 21.250004 6.299998L21.250004 6.299998L21.150003 5.3999977C 21.617004 5.3999977 21.950003 5.3669977 22.150003 5.299998C 22.084003 5.266998 21.933004 5.0839977 21.700003 4.7499976C 22.400003 4.8499975 22.817003 4.8829975 22.950003 4.8499975C 22.617002 4.6499977 22.450003 4.4159975 22.450003 4.1499977C 22.550003 4.1169977 22.683002 4.0669975 22.850002 3.9999976C 22.683002 3.7329977 22.333002 3.5169976 21.800003 3.3499975C 21.200003 3.1829975 20.834003 3.0329976 20.700003 2.8999975L20.700003 2.8999975L22.500002 2.8499975L22.350002 2.5499976C 22.350002 2.4839976 22.400002 2.3829975 22.500002 2.2499976C 22.200003 2.0829976 21.667002 1.8999976 20.900002 1.6999977C 20.2 1.5329976 19.683002 1.3329977 19.350002 1.0999976C 19.383003 0.93299764 19.250002 0.7499976 18.950003 0.5499976L18.950003 0.5499976L19.600002 0.69999766L19.6 0.7z" stroke="none" fill="#725525" fill-rule="nonzero" />
    <path d="M23.65 2.75L24.125 3.075C 25.158 3.785 26.083 4.526 26.9 5.3C 27.16 5.546 27.41 5.796 27.65 6.05C 28.233 6.6800003 28.699 7.28 29.05 7.8500004C 28.64 8.04 28.196999 8.248 27.724998 8.475C 27.585999 8.304001 27.427998 8.146 27.249998 8C 27.116999 7.867 26.482998 7.65 25.349998 7.35C 24.349998 7.0499997 23.866999 6.783 23.899998 6.5499997C 24.732998 6.5499997 25.232998 6.4999995 25.399998 6.3999996C 25.399998 6.2999997 25.466997 6.1329994 25.599998 5.8999996L25.599998 5.8999996L25.399998 5.2499995C 25.032997 5.2169995 24.799997 5.1329994 24.699997 4.9999995C 24.765997 4.7669997 24.782997 4.6169996 24.749996 4.5499997L24.749996 4.5499997L23.649996 2.7499998L23.65 2.75z" stroke="none" fill="#5D451F" fill-rule="nonzero" />
    <path d="M11.1 3.9L11.05 3.9C 10.55 3.967 9.7 4.183 8.5 4.55C 7.8 4.8170004 7.217 5.033 6.75 5.2000003C 5.883 5.5000005 5.317 5.617 5.05 5.55L5.05 5.55L6.25 4.8L5.65 4.75L5.9 4.35L5.7000003 4.2C 6.333 3.567 7.1170006 3.0159998 8.05 2.5499997C 8.517 2.2829998 9.217 1.8339996 10.15 1.1999997L10.15 1.1999997L10.349999 1.2999997C 10.983 1.2999997 11.332999 1.3339998 11.4 1.3999997C 11.467 1.4669998 11.516999 1.6169997 11.549999 1.8499997C 11.582999 2.0169997 11.699999 2.0999997 11.9 2.0999997C 10.967 2.2669997 10.367 2.5329998 10.099999 2.8999996C 10.466999 3.0329995 11.082999 3.0669997 11.95 2.9999995C 11.316999 3.2329996 10.867 3.4329996 10.599999 3.5999994L10.599999 3.5999994L11.099999 3.8999994L11.1 3.9z" stroke="none" fill="#B58A45" fill-rule="nonzero" />
    <path d="M24.1 10.6C 24.297 10.417001 24.514 10.243 24.75 10.075001C 24.768 10.061001 24.785 10.045001 24.8 10.025001C 25.206 9.740001 25.664999 9.464001 26.175 9.200001L26.175 9.200001L26.199999 9.200001C 26.741 8.941001 27.248999 8.699 27.724998 8.475C 28.196999 8.248 28.64 8.04 29.05 7.8500004L29.05 7.8500004L29.099998 7.8250003C 31.409998 6.7130003 32.759 6.071 33.150997 5.9000006C 33.257996 5.851001 33.35 5.8090005 33.424995 5.7750006C 33.512997 5.7440004 33.579994 5.7180004 33.624996 5.700001L33.624996 5.700001L33.649998 5.700001L39.624996 4.125001C 40.014996 4.103001 40.389996 4.094001 40.749996 4.100001C 40.916996 4.967001 39.184 6.467001 35.549995 8.6C 35.049995 8.767 34.516994 8.683001 33.949997 8.35C 33.082996 7.9160004 32.615997 7.6830006 32.549995 7.6500006C 31.674995 7.4190006 30.608995 7.6350007 29.349995 8.3L29.349995 8.3L29.325994 8.325C 28.967995 8.507999 28.592995 8.733 28.199995 9C 28.174995 9.017 28.149996 9.034 28.124994 9.05C 27.727995 9.318 27.352995 9.56 26.999994 9.775001C 25.683994 10.567 24.683994 10.976001 23.999994 11.000001L23.999994 11.000001L23.949995 11.000001L24.099995 10.600001L24.1 10.6zM14.450001 1.5500002C 14.516001 2.4500003 14.133 2.7830002 13.300001 2.5500002C 12.967001 2.4840002 12.767001 2.3170002 12.700001 2.0500002C 12.666 1.7830002 12.766001 1.6830002 13.000001 1.7500002C 13.233001 1.5500002 13.717001 1.4830003 14.450001 1.5500002zM11.1 3.9L11.400001 3.7L12.3 3.65L12.35 3.7C 13.217 3.6660001 13.6 3.8500001 13.5 4.25C 13.4 4.517 13.067 4.867 12.5 5.3C 10.233 7 8.267 7.767 6.6 7.6000004C 6.733 7.267 7.117 6.9670005 7.75 6.7000003C 8.583 6.367 9.067 6.15 9.2 6.05C 8.733 5.55 9.349999 4.834 11.05 3.9L11.05 3.9L11.1 3.9zM4.2000003 8.65C 4.2000003 8.349999 4.4 7.9999995 4.8 7.5999994L4.8 7.5999994L5.25 7.4999995C 5.317 7.8329997 5.25 8.132999 5.05 8.4C 4.8170004 8.667 4.533 8.75 4.2000003 8.65zM3.8500004 6.45L4.3 6.35C 4.8 6.217 5 6.35 4.9 6.75C 4.867 6.95 4.633 7.067 4.2000003 7.1C 4.1000004 7.167 3.7330003 7.567 3.1000004 8.3C 2.6330004 8.833 2.2000003 9.083 1.8000004 9.05C 1.8000004 8.75 1.9330004 8.45 2.2000005 8.150001C 2.3670006 7.950001 2.6170006 7.6830006 2.9500005 7.3500004L2.9500005 7.3500004L2.6000006 7.2500005C 2.8670006 6.6500006 3.2830007 6.3830004 3.8500006 6.4500003zM6.3 6C 6.5 5.867 6.767 5.85 7.1000004 5.95C 7.1660004 6.516 6.6500006 6.75 5.55 6.6499996C 5.4830003 6.3829994 5.517 6.167 5.65 5.9999995L5.65 5.9999995L6.3 5.9999995z" stroke="none" fill="#AE833D" fill-rule="nonzero" />
    <path d="M23.8 10.875C 23.722 10.924 23.639 10.965 23.55 11C 23.355999 11.069 23.154999 11.119 22.949999 11.15C 22.435999 11.108999 22.085999 11.066999 21.9 11.025C 22.063 10.837 22.413 10.596 22.949999 10.299999C 23.415998 9.999999 23.633 9.549999 23.599998 8.949999C 23.332998 9.415998 22.982998 9.782999 22.55 10.049999C 22.05 10.316999 21.584 10.382999 21.15 10.249999C 21.417 9.582999 21.532999 9.099999 21.5 8.799999C 20.949 9.494999 20.466 9.977999 20.05 10.249999C 19.928999 10.221999 19.803999 10.204999 19.675 10.199999C 19.741 9.959999 19.8 9.775999 19.849998 9.649999C 19.915998 9.3169985 19.932999 9.016998 19.899998 8.749999C 19.608997 9.266999 19.192997 9.749999 18.649998 10.199999C 17.862997 10.213999 17.096998 10.238998 16.349998 10.274999C 16.282999 10.073998 16.249998 9.815999 16.249998 9.499999C 16.316998 8.632999 16.332998 8.049999 16.299997 7.749999C 15.999997 8.616999 15.766997 9.199999 15.5999975 9.499999C 15.199998 10.199999 14.716997 10.499999 14.149998 10.399999C 14.149998 9.632998 14.016997 8.982999 13.749998 8.449999C 13.716998 8.616999 13.616998 9.0669985 13.449998 9.799999C 13.306998 10.228 13.140998 10.4939995 12.949998 10.599999C 12.868998 10.643 12.785998 10.66 12.699998 10.65L12.699998 10.65L12.674998 10.65C 12.480998 10.594999 12.288999 10.379 12.099998 10C 11.832998 9.433 11.682999 9.133 11.649999 9.1C 11.583999 9.333 11.532999 9.617001 11.499999 9.950001L11.499999 9.950001L11.499999 10.85C 11.199999 10.817 10.849999 10.683001 10.449999 10.450001C 9.882998 10.117001 9.549999 9.933001 9.449999 9.900001C 9.482999 9.967001 9.649999 10.233001 9.949999 10.700001C 10.091999 10.913001 10.166999 11.121 10.174999 11.325001C 9.989999 11.391001 9.806999 11.457001 9.624999 11.525001C 9.304999 11.498 8.929999 11.423 8.499999 11.3C 7.699999 11.1 7.132999 11 6.799999 11C 6.8979993 11.325 7.3309994 11.741 8.099999 12.25C 8.072999 12.265 8.046999 12.282 8.025 12.3C 6.4519997 12.234 5.2609997 12.2 4.45 12.2C 4.983 12.632999 5.7 12.882999 6.6 12.95L6.6 12.95L7 12.95C 6.886 13.040999 6.761 13.141 6.625 13.25C 6.157 13.398 5.515 13.448 4.7 13.4C 3.567 13.334 2.7999997 13.417 2.3999999 13.65C 2.6 13.783 3.1169999 13.9 3.9499998 14C 4.717 14.067 5.1829996 14.2 5.35 14.4C 5.283 14.433 4.916 14.45 4.25 14.45C 3.783 14.45 3.517 14.583 3.45 14.849999C 3.8500001 15.049999 4.35 15.165999 4.95 15.2C 5.199 15.222 5.515 15.238999 5.8999996 15.25L5.8999996 15.25L5.9249997 17C 5.448 16.842 4.99 16.659 4.5499997 16.45C 2.8499997 15.617001 1.9999998 14.783001 1.9999998 13.950001C 1.9999998 12.983001 3.0499997 11.883001 5.1499996 10.650001C 7.7499995 9.117001 11.049999 8.167001 15.049999 7.8000007C 19.317 7.4000006 22.667 7.700001 25.099998 8.700001C 25.505 8.861001 25.862999 9.027 26.175 9.200001C 25.664999 9.464001 25.206 9.740001 24.8 10.025001C 24.82 9.988001 24.835999 9.946 24.849998 9.900001C 24.818998 9.958 24.786 10.016001 24.749998 10.075001C 24.513998 10.242001 24.296999 10.417001 24.099998 10.6C 23.998 10.694 23.897999 10.786 23.8 10.875zM38.949997 51.975C 38.476997 52.07 38.026997 52.128 37.598995 52.150997C 37.165997 52.150997 36.432995 52.066998 35.399994 51.900997C 34.465996 51.733997 33.715996 51.667995 33.149994 51.700996C 32.782993 51.767 32.499992 51.816998 32.298992 51.849995C 31.965992 51.916996 31.682993 51.916996 31.448992 51.849995C 31.34999 51.815994 30.799992 51.532993 29.799992 50.999996C 29.433992 50.899998 29.150991 50.815998 28.949991 50.749996C 28.615992 50.615997 28.383991 50.466995 28.24999 50.299995C 28.11599 50.166996 28.01699 49.900997 27.949991 49.499996C 27.889992 49.259995 27.830992 49.059998 27.774992 48.899998C 27.878992 48.744 27.953993 48.544 27.999992 48.298996C 28.133993 48.998997 28.499992 49.614998 29.099993 50.149998C 29.733994 50.683 30.400993 50.933 31.099993 50.899998C 31.599993 50.865997 32.166992 50.649998 32.79999 50.249996C 33.532993 49.782997 34.082993 49.482998 34.449993 49.349995C 36.01599 48.883995 37.082993 48.383995 37.649994 47.849995C 38.382996 47.116993 38.865993 45.950996 39.098995 44.349995C 39.165997 44.016994 39.232994 43.183994 39.298996 41.849995C 39.331997 40.816994 39.448997 39.999996 39.649998 39.400993C 40.115997 37.966995 40.315998 36.349995 40.249996 34.549995C 40.183994 32.483994 39.732998 30.900995 38.899998 29.799995C 38.232998 28.900995 37.099 27.949995 35.499996 26.949995C 35.266994 26.782995 34.982998 26.415995 34.649998 25.849995C 34.315998 25.316994 34.065998 24.999994 33.899998 24.899994C 33.666996 24.799994 33.232998 24.799994 32.599 24.899994C 31.966 25.032993 31.532999 25.032993 31.299 24.899994C 31.098999 24.833994 30.933 24.616993 30.799 24.249994C 30.633 23.882994 30.515999 23.682995 30.449 23.649994C 30.182 23.516994 29.765 23.449993 29.199 23.449993C 28.532 23.482994 28.098 23.466993 27.899 23.399994L27.899 23.399994L27.949 22.999994L28.299 21.749994L28.348999 21.749994C 28.716 21.849995 29.299 21.916994 30.098999 21.949995C 30.233 21.982996 30.4 22.116995 30.598999 22.349995C 30.831999 22.616995 30.998999 22.766994 31.098999 22.799995C 31.432999 22.932995 31.983 23.016994 32.749 23.049995C 32.949 23.116995 33.199 23.299995 33.499 23.599995C 33.799 23.932995 34.049 24.132996 34.249 24.199995C 34.749 24.399996 35.799 24.499994 37.399002 24.499994C 38.865 24.466993 39.865 24.682995 40.399002 25.149994C 40.598003 25.349995 40.782 25.699993 40.949 26.199993C 41.115 26.732994 41.265003 27.098993 41.399002 27.299994C 41.565002 27.532993 41.899002 27.865993 42.399002 28.299994C 42.832 28.666994 43.132004 28.999994 43.298 29.299994C 43.798 30.233994 44.114 31.832993 44.248 34.099995C 44.348 36.299995 44.231003 38.049995 43.898003 39.349995C 43.864002 39.549995 43.681004 39.916996 43.347004 40.450996C 43.080006 40.849995 42.981003 41.250996 43.047005 41.650997C 43.080006 41.950996 43.330006 42.384 43.797005 42.950996C 44.231003 43.417995 44.414005 43.884995 44.347004 44.349995C 44.281002 44.883995 43.964005 45.433994 43.398003 45.999996C 42.731003 46.565994 42.264004 46.999996 41.998 47.299995C 41.564003 47.832996 40.948 48.683994 40.148003 49.849995C 39.681004 50.716995 39.331 51.349995 39.097004 51.749996C 39.052006 51.825996 39.001003 51.900997 38.950005 51.974995zM26.074997 27.499998C 25.532997 28.650997 24.840998 30.067999 23.999996 31.749998C 22.266996 35.384 21.216995 38.267 20.849997 40.399998C 20.765997 40.878998 20.706997 41.329 20.674997 41.749996C 20.394997 41.645996 20.119997 41.478996 19.849997 41.249996C 19.881996 41.477997 19.848997 41.860996 19.749996 42.399998C 19.668997 42.386997 19.584995 42.371 19.499996 42.349C 19.493996 42.388 19.484997 42.420998 19.474997 42.45C 18.544996 42.481 17.669996 42.314 16.849997 41.95C 15.782996 41.384003 14.882997 40.95 14.149997 40.65C 14.182997 41.116 14.399997 41.566 14.799996 42C 15.032996 42.2 15.449996 42.483 16.049995 42.85C 15.915996 42.903 15.782995 42.945 15.649996 42.975C 15.3119955 42.826 15.0949955 42.75 14.999996 42.75C 14.832996 42.717 14.666996 42.75 14.499996 42.85C 14.360996 42.919 14.235996 42.961 14.124996 42.975C 13.907996 42.939 13.682996 42.880997 13.449996 42.8C 12.582996 42.467 11.849996 41.967 11.249996 41.3C 11.184997 41.519 11.159996 41.726997 11.174996 41.925C 10.649997 41.757 10.191997 41.766 9.799996 41.95C 9.432997 41.55 8.816997 41.333 7.9499965 41.3C 7.4609966 41.283 7.0689964 41.333 6.7749968 41.45C 6.3939967 41.373 6.1189966 41.306 5.949997 41.25C 5.734997 41.127 5.509997 41.035 5.2749968 40.975C 5.245997 40.963997 5.220997 40.954998 5.199997 40.951L5.199997 40.951L4.499997 40.1C 4.3399973 39.898 4.189997 39.69 4.0499973 39.475C 3.8079972 39.067997 3.5909972 38.608997 3.3999972 38.1L3.3999972 38.1L3.4499972 35.05C 3.4629972 35.84 3.796997 36.788998 4.449997 37.901C 5.116997 39.067 5.816997 39.867 6.549997 40.3C 6.2829967 39.333 6.1499968 38.634 6.1499968 38.2C 6.8499966 39 7.549997 39.516 8.249996 39.75L8.249996 39.75L8.099997 38.15C 8.932997 38.983 9.616997 39.516003 10.149997 39.75C 9.649997 38.616 9.266996 37.217 8.999997 35.55C 8.699997 33.85 8.616997 32.401 8.749997 31.199999C 9.149997 31.565998 9.449997 32.417 9.649997 33.75C 9.882997 35.25 10.099997 36.2 10.299996 36.6C 10.833997 37.566998 11.549996 38.467 12.449997 39.3C 13.482997 40.234 14.466997 40.8 15.399997 41C 14.866997 40.233 14.599997 39.134 14.599997 37.7C 14.832996 37.833 15.232997 38.384003 15.799996 39.349C 16.199997 40.082 16.682997 40.416 17.249996 40.349C 17.316996 39.782997 17.682997 39.365997 18.349997 39.099C 19.249996 38.7 19.782997 38.433 19.949997 38.299C 20.616997 37.699 20.982998 36.532 21.049997 34.799C 21.216997 33.199 21.316998 31.966 21.349997 31.098999C 21.415997 29.565998 21.232996 28.366 20.799997 27.498999C 20.432997 26.831999 20.182997 26.348999 20.049997 26.048998C 19.816998 25.582998 19.666998 25.048998 19.599997 24.448997C 19.532997 23.781998 19.415997 23.231998 19.249996 22.798998C 19.116997 22.465998 18.832996 21.965998 18.399996 21.298998C 17.532995 20.031998 16.749996 19.148998 16.049995 18.648998C 15.249995 18.248999 14.699995 17.948997 14.399996 17.748999C 13.866996 17.381998 13.566996 16.781998 13.499996 15.948998C 12.499996 16.616 11.766996 16.998999 11.299996 17.098999C 10.466996 17.231998 9.966996 16.748999 9.799996 15.648999C 9.599997 16.116 9.349997 16.415998 9.049996 16.549C 8.716996 16.716 8.449996 16.566 8.249996 16.098999C 8.149996 16.199 7.732996 16.748999 6.999996 17.748999C 6.8329964 17.581999 6.699996 17.466 6.599996 17.398998C 6.4329963 17.231998 6.316996 17.031998 6.249996 16.798998L6.249996 16.798998L5.999996 17.199997L5.949996 15.049997C 6.182996 15.049997 6.399996 14.966997 6.599996 14.799997C 6.832996 14.566998 7.032996 14.416997 7.199996 14.3499975C 7.466996 14.249997 7.966996 14.082997 8.699996 13.8499975C 8.899996 13.749997 9.149996 13.582997 9.449996 13.3499975C 9.716996 13.149998 9.949996 13.016997 10.149996 12.949998C 10.216996 12.9159975 10.349996 12.949998 10.549995 13.049998C 10.749995 13.149999 10.899996 13.182999 10.999995 13.149999C 11.099995 13.116999 11.266995 13.016998 11.499995 12.849998C 11.699995 12.682999 11.866995 12.582998 11.999995 12.549998L11.999995 12.549998L13.699995 12.299998C 14.032995 12.333999 14.432995 12.349998 14.899995 12.349998C 14.999995 12.349998 15.032995 12.499998 14.999995 12.799998C 14.966995 13.099998 15.032995 13.282998 15.199995 13.349998C 15.432995 13.415998 15.799995 13.299998 16.299995 12.999998C 16.799995 12.699998 17.182995 12.549998 17.449995 12.549998C 17.582994 12.549998 17.899996 12.666998 18.399996 12.899999C 18.899996 13.099998 19.282995 13.199999 19.549995 13.199999C 19.549995 13.265999 19.516994 13.8169985 19.449995 14.849998C 19.415995 15.649999 19.466995 16.199999 19.599995 16.499998C 19.766994 16.899998 20.099995 17.282997 20.599995 17.649998C 21.132996 18.083998 21.499994 18.466997 21.699995 18.799997C 21.932995 19.233997 22.116995 19.916998 22.249994 20.849997C 22.416994 21.816998 22.599995 22.516996 22.799994 22.949997C 23.032993 23.449997 23.566994 24.149998 24.399994 25.049997C 25.166994 25.916998 25.682995 26.632998 25.949993 27.199997C 25.993994 27.298998 26.035994 27.397997 26.074993 27.499996zM20.849997 44.074997C 20.711996 43.748997 20.594997 43.489998 20.499996 43.299995C 20.533997 43.364994 20.608995 43.431995 20.724997 43.499996L20.724997 43.499996L20.749996 43.499996C 21.082996 43.365997 21.332996 42.899998 21.499996 42.099995C 21.666996 41.332996 21.999996 40.900993 22.499996 40.799995C 22.532997 41.166996 22.499996 42.115997 22.399996 43.650997C 22.432997 45.017 22.749996 45.667995 23.349997 45.6C 23.382998 44.533997 23.399996 43.733997 23.399996 43.201C 23.432997 42.234 23.566996 41.468 23.799995 40.901C 23.766994 43.168 23.749996 44.467003 23.749996 44.8C 23.882996 46.401 24.316996 47.583 25.049995 48.35C 25.616995 48.983997 26.216995 49.316998 26.849995 49.35C 26.965994 49.35 27.074995 49.342 27.174995 49.326L27.174995 49.326L27.149996 49.35C 26.916996 49.684 26.682995 49.900997 26.449995 50C 26.282995 50.066 25.999994 50.1 25.599995 50.1C 25.285995 50.074997 25.043995 50.081997 24.874994 50.125C 24.848995 50.113 24.823994 50.104 24.799994 50.1L24.799994 50.1L24.299994 49.699997C 24.260994 49.641 24.218994 49.582996 24.174994 49.524998C 23.532993 48.939 22.974993 48.330997 22.499994 47.699997C 22.468994 47.684 22.435995 47.667995 22.399994 47.649998C 22.240993 47.419 22.082994 47.151997 21.924994 46.849C 21.730993 46.445 21.538994 45.978 21.349993 45.45C 21.156992 44.907 20.990993 44.449 20.849993 44.075zM29.899998 51.699997C 30.512999 51.917995 31.079998 52.108997 31.598997 52.274998C 31.529997 52.284996 31.462997 52.293 31.399998 52.298996L31.399998 52.298996L31.349998 52.298996L29.899998 51.699997zM25.874998 50.399998C 26.309998 50.503998 26.792997 50.635998 27.324999 50.798996L27.324999 50.798996L27.3 50.824997C 27.281 50.831997 27.264 50.840996 27.25 50.848995L27.25 50.848995L26.9 50.748997C 26.515 50.607 26.173 50.489998 25.875 50.399998z" stroke="none" fill="#AF9765" fill-rule="nonzero" />
    <path d="M24.8 10.025C 24.785 10.045 24.768 10.061999 24.75 10.075C 24.786 10.016 24.819 9.958 24.85 9.9C 24.836 9.945999 24.819 9.988 24.800001 10.025L24.800001 10.025L24.8 10.025zM22.949999 11.15C 23.154999 11.1189995 23.355 11.068999 23.55 11C 23.639 10.965 23.722 10.924 23.8 10.875C 23.706 10.985 23.613998 11.094 23.525 11.2C 23.321 11.183 23.13 11.165999 22.949999 11.15zM7.7749987 13.2C 9.572999 12.333 12.148998 11.9 15.499998 11.9C 17.999998 11.9 19.882998 12.167 21.149998 12.7C 21.812998 12.971 22.295998 13.354 22.599998 13.849999C 22.623 14.405 22.772999 14.964 23.05 15.525C 23.07 15.7039995 23.085999 15.8949995 23.099998 16.1C 23.165998 18.267 23.499998 20.017 24.099998 21.35C 24.266998 21.717001 24.582998 22.166 25.05 22.7C 25.584 23.300001 25.917 23.7 26.05 23.900002C 26.407 24.409002 26.741 24.909002 27.05 25.400002C 26.802 25.962002 26.477 26.662 26.074999 27.500002C 26.034998 27.398003 25.992998 27.299002 25.949999 27.200003C 25.682999 26.633003 25.165998 25.916002 24.4 25.050003C 23.567 24.150003 23.032999 23.450003 22.8 22.950003C 22.599998 22.516003 22.417 21.817003 22.25 20.850002C 22.117 19.916002 21.933 19.233002 21.7 18.800003C 21.5 18.467003 21.133001 18.084003 20.6 17.650003C 20.1 17.283003 19.767 16.900003 19.6 16.500004C 19.467001 16.200005 19.416 15.650003 19.45 14.850004C 19.516 13.817004 19.550001 13.267004 19.550001 13.200005C 19.283 13.200005 18.900002 13.100004 18.400002 12.900004C 17.900002 12.667005 17.584002 12.550004 17.45 12.550004C 17.183 12.550004 16.800001 12.700004 16.300001 13.000004C 15.800001 13.300004 15.4330015 13.417004 15.200001 13.350004C 15.033001 13.283004 14.967001 13.100004 15.000001 12.800004C 15.033001 12.500004 15.000001 12.350004 14.900001 12.350004C 14.433001 12.350004 14.033001 12.333004 13.700001 12.300004L13.700001 12.300004L12.000001 12.550004C 11.867001 12.584004 11.700001 12.683004 11.500001 12.850004C 11.267001 13.017004 11.100001 13.117004 11.000001 13.150004C 10.900001 13.183004 10.750001 13.150004 10.550001 13.050004C 10.350001 12.950004 10.217001 12.917004 10.150002 12.950004C 9.950002 13.016004 9.717002 13.150003 9.450002 13.350003C 9.150002 13.583003 8.900002 13.750003 8.700002 13.850003C 7.967002 14.083003 7.467002 14.250003 7.2000017 14.350003C 7.033002 14.416003 6.8330016 14.567003 6.600002 14.800003C 6.400002 14.967003 6.183002 15.050003 5.9500017 15.050003L5.9500017 15.050003L5.9000015 14.700003L7.7750015 13.200003zM8.024999 12.3C 7.8949986 12.365 7.7699986 12.432 7.6499987 12.5C 7.4859986 12.59 7.2689986 12.74 6.9999986 12.95L6.9999986 12.95L6.5999985 12.95C 5.6999984 12.882999 4.9829984 12.632999 4.4499984 12.2C 5.2609982 12.2 6.4519987 12.233 8.024999 12.3zM28.3 21.75C 28.318998 21.665 28.335 21.581 28.349998 21.5C 28.435999 21.098 28.510998 20.723 28.575998 20.375C 29.394999 20.838 30.245998 21.247 31.125998 21.6C 31.437998 22.37 32.229996 22.837 33.501 23C 34.201 23.1 35.218 23.167 36.551 23.2C 36.951 23.266 37.751 23.45 38.951 23.75C 39.885002 23.95 40.684002 24.067 41.35 24.1C 41.384 24.767 41.634 25.117 42.1 25.15C 42.366997 25.183 42.833 25.233 43.5 25.3C 44.134 25.532999 44.65 26 45.05 26.699999C 45.184 26.967 45.45 27.633999 45.85 28.699999C 46.283997 29.832998 46.717 31.332998 47.150997 33.199997C 47.716995 35.532997 48.1 37.032997 48.299995 37.699997C 48.832996 39.532997 48.983994 41.049995 48.749996 42.249996C 48.615997 42.815994 48.282997 43.532997 47.749996 44.399998C 47.115997 45.399998 46.732998 46.065998 46.599995 46.399998C 46.499996 46.699997 46.349995 47.383 46.150993 48.449997C 45.91799 49.449997 45.583992 50.032997 45.150993 50.199997C 44.950993 50.299995 44.683994 50.266 44.349995 50.098995C 43.983994 49.932995 43.766994 49.848995 43.700996 49.848995C 43.400997 49.915997 43.150997 50.015995 42.950996 50.149994C 42.717995 50.348995 42.483997 50.515995 42.250996 50.649994C 42.038994 50.785995 41.821995 50.952995 41.600994 51.149994L41.600994 51.149994L41.550995 51.149994C 40.450996 51.548992 39.817993 51.765995 39.651997 51.798992C 39.413998 51.86399 39.179996 51.921993 38.951996 51.97399C 39.002995 51.90099 39.053997 51.825993 39.100994 51.748993C 39.333996 51.34899 39.684994 50.715992 40.151993 49.84899C 40.951992 48.68299 41.567993 47.831993 42.00199 47.298992C 42.26899 46.998993 42.734993 46.56599 43.401993 45.998993C 43.967995 45.43299 44.284992 44.88299 44.350994 44.34899C 44.417995 43.88299 44.234993 43.415993 43.800995 42.949993C 43.333996 42.383995 43.083996 41.949993 43.050995 41.649994C 42.984993 41.249992 43.083996 40.848995 43.350994 40.449993C 43.684994 39.916992 43.867992 39.54999 43.901993 39.34899C 44.234993 38.048992 44.350994 36.298992 44.25199 34.09899C 44.117992 31.831991 43.80199 30.232992 43.30199 29.298992C 43.13599 28.998993 42.83499 28.665993 42.402992 28.298992C 41.902992 27.864992 41.568993 27.531992 41.402992 27.298992C 41.268993 27.098991 41.11899 26.732992 40.95299 26.198992C 40.78599 25.698992 40.60199 25.348991 40.402992 25.148993C 39.86899 24.681992 38.86899 24.465992 37.402992 24.498993C 35.80199 24.498993 34.75299 24.398993 34.25299 24.198994C 34.05299 24.131994 33.80299 23.931993 33.50299 23.598993C 33.20299 23.298994 32.95299 23.115993 32.75299 23.048994C 31.98599 23.015993 31.43699 22.931993 31.102991 22.798994C 31.00299 22.765993 30.83599 22.615993 30.602991 22.348993C 30.403992 22.115993 30.236992 21.981993 30.102991 21.948994C 29.302992 21.914993 28.719992 21.848993 28.352991 21.748993L28.352991 21.748993L28.299992 21.748993zM21.9 11.025C 21.858 11.016999 21.824 11.007999 21.8 11C 21.334 10.733 20.984 10.55 20.75 10.45C 20.529 10.349 20.296 10.283 20.05 10.25C 20.466 9.978 20.949 9.495 21.5 8.8C 21.533 9.1 21.417 9.584001 21.15 10.25C 21.584 10.383 22.05 10.317 22.55 10.05C 22.984 9.783 23.334 9.417 23.599998 8.95C 23.633 9.55 23.415998 10 22.949999 10.3C 22.412998 10.596001 22.063 10.837 21.9 11.025001zM6.625 13.25C 6.384 13.465 6.108 13.715 5.8 14C 5.433 14.3 5.25 14.533 5.25 14.7C 5.25 14.905 5.467 14.996 5.9 14.974999L5.9 14.974999L5.9 15.249999C 5.5160003 15.238999 5.1990004 15.222999 4.9500003 15.199999C 4.3500004 15.165998 3.8500004 15.049999 3.4500003 14.849998C 3.5160003 14.582998 3.7830002 14.449999 4.2500005 14.449999C 4.9170003 14.449999 5.2830005 14.432999 5.3500004 14.399999C 5.1830006 14.199999 4.7170005 14.0669985 3.9500003 13.999999C 3.1170003 13.899999 2.6000004 13.782999 2.4000003 13.649999C 2.8000004 13.416999 3.5670004 13.333999 4.7000003 13.399999C 5.5150003 13.447999 6.1570005 13.397999 6.625 13.249999zM9.625 11.525C 9.117 11.7369995 8.608 11.979 8.1 12.25C 7.3300004 11.741 6.8970003 11.325 6.8 11C 7.1330004 11 7.7000003 11.1 8.5 11.3C 8.93 11.423 9.305 11.498 9.625 11.525001zM10.175 11.325C 10.167 11.121 10.092 10.913 9.95 10.7C 9.65 10.233 9.483 9.967 9.45 9.9C 9.55 9.933 9.882999 10.117 10.45 10.45C 10.849999 10.683 11.2 10.816999 11.5 10.849999L11.5 10.849999L11.5 9.95C 11.533 9.617 11.583 9.333 11.65 9.099999C 11.683 9.132999 11.834 9.433 12.099999 9.999999C 12.289 10.377999 12.480999 10.594999 12.674999 10.649999C 11.845999 10.7839985 11.013 11.008999 10.174999 11.324999zM18.650002 10.2C 19.193 9.749 19.609001 9.266 19.900002 8.75C 19.933002 9.017 19.917002 9.317 19.850002 9.65C 19.799002 9.776 19.741003 9.96 19.675003 10.2L19.675003 10.2L18.650003 10.2zM16.350002 10.275C 15.308002 10.341 14.308002 10.431999 13.350002 10.549999C 13.216002 10.565 13.082003 10.580999 12.950003 10.599999C 13.141003 10.4939995 13.307003 10.226999 13.450003 9.799999C 13.6170025 9.066999 13.717003 8.617 13.750003 8.449999C 14.017003 8.982999 14.1500025 9.632998 14.1500025 10.399999C 14.717003 10.499999 15.200003 10.199999 15.600002 9.499999C 15.767002 9.199999 16.000002 8.616999 16.300003 7.749999C 16.334003 8.049999 16.317003 8.632999 16.250004 9.499999C 16.250004 9.815999 16.283005 10.073999 16.350004 10.274999zM15.6500025 42.975C 15.783003 42.945 15.916002 42.903 16.050003 42.85C 15.450003 42.483997 15.033003 42.201 14.800003 42C 14.400003 41.566 14.183003 41.116 14.150003 40.65C 14.883003 40.95 15.783004 41.383003 16.850004 41.95C 17.670004 42.314 18.545004 42.481 19.475004 42.45C 19.353004 42.987 19.012005 43.288002 18.450005 43.349C 17.813005 43.349 17.329004 43.374 17.000004 43.424C 16.636003 43.368 16.335003 43.293 16.100004 43.199C 15.927004 43.113003 15.776004 43.038002 15.650004 42.975002zM14.125003 42.975C 14.083003 42.990997 14.041003 43 14.000003 43C 13.600003 43.033 12.9000025 42.783 11.900003 42.25C 11.643003 42.106 11.401004 41.998 11.175003 41.925C 11.160003 41.726997 11.185003 41.519 11.250003 41.3C 11.850003 41.967 12.583003 42.467 13.450003 42.8C 13.683002 42.881 13.908003 42.938 14.125003 42.975zM20.675003 41.75C 20.654003 42.018 20.646004 42.276 20.650003 42.525C 20.350004 42.507 20.050003 42.466003 19.750004 42.4C 19.849005 41.861 19.882004 41.477 19.850004 41.25C 20.120005 41.479 20.395004 41.646 20.675005 41.75zM31.925003 52.375L31.400003 52.3C 31.463003 52.293 31.530003 52.285 31.599003 52.276C 31.713003 52.31 31.821003 52.343002 31.925003 52.375z" stroke="none" fill="#917E54" fill-rule="nonzero" />
    <path d="M12.675 10.65L12.7 10.65C 12.786 10.66 12.8689995 10.643 12.95 10.599999C 13.082 10.580999 13.216 10.563999 13.349999 10.549999C 14.308 10.431999 15.308 10.341 16.349998 10.275C 17.096998 10.238999 17.862999 10.214 18.649998 10.2L18.649998 10.2L19.674997 10.2C 19.803997 10.205 19.928997 10.221 20.049997 10.25C 20.295998 10.283 20.528997 10.35 20.749998 10.45C 20.982998 10.55 21.332998 10.733 21.799997 11C 21.823997 11.008 21.857998 11.017 21.899998 11.025C 22.085999 11.066999 22.435997 11.108999 22.949997 11.15C 23.129997 11.165999 23.320997 11.183 23.524998 11.2C 23.342999 11.4279995 23.184998 11.661 23.049997 11.9C 22.899998 11.818 22.732998 11.735 22.549997 11.65C 21.316998 11.066999 19.791998 10.742 17.974998 10.674999L17.974998 10.674999L17.449999 10.65C 16.717 10.646 15.932999 10.679 15.099998 10.75L15.099998 10.75L9.649999 12.125C 8.844998 12.482 8.094998 12.907 7.3999987 13.4C 7.5239987 13.330999 7.6489987 13.264 7.7749987 13.2L7.7749987 13.2L5.8999987 14.7L5.8999987 14.974999C 5.4669986 14.995999 5.2499986 14.905 5.2499986 14.7C 5.2499986 14.533 5.4329987 14.3 5.7999988 14C 6.108999 13.715 6.383999 13.465 6.6249986 13.25C 6.7609987 13.142 6.8859987 13.042 6.9999986 12.95C 7.2689986 12.74 7.4859986 12.59 7.6499987 12.5C 7.7699986 12.432 7.8949986 12.365 8.024999 12.3C 8.046999 12.282001 8.072999 12.265 8.099998 12.25C 8.607999 11.979 9.116999 11.7369995 9.624998 11.525C 9.806998 11.457999 9.989998 11.391 10.174998 11.325C 11.012999 11.009 11.845999 10.783999 12.674998 10.65L12.674998 10.65L12.675 10.65z" stroke="none" fill="#C2AA78" fill-rule="nonzero" />
    <path d="M27.9 23.125C 28.071 22.579 28.220999 22.037 28.35 21.5C 28.335001 21.581 28.319 21.665 28.300001 21.75L28.300001 21.75L27.95 23L27.900002 23.125L27.9 23.125zM4.049999 39.475C 3.0149994 37.808 2.6139994 35.649 2.8499992 33C 3.0499992 30.934 3.6999993 28.267 4.799999 25C 5.4969993 22.942 5.880999 20.617 5.9499993 18.025L5.9499993 18.025L5.924999 17L5.899999 15.25L5.899999 14.7L5.9499993 15.05L5.9999995 17.2L6.2499995 16.800001C 6.3169994 17.033 6.4329996 17.234001 6.5999994 17.400002C 6.6999993 17.467001 6.832999 17.584002 6.9999995 17.750002C 7.7329993 16.750002 8.15 16.200003 8.25 16.100002C 8.45 16.567001 8.717 16.717003 9.05 16.550003C 9.35 16.417004 9.6 16.117002 9.8 15.650003C 9.967 16.750004 10.467 17.233004 11.3 17.100004C 11.767 17.000004 12.5 16.617004 13.5 15.950005C 13.567 16.783005 13.867 17.383005 14.4 17.750004C 14.7 17.950005 15.25 18.250004 16.05 18.650003C 16.75 19.150003 17.532999 20.033003 18.4 21.300003C 18.834 21.967003 19.117 22.467003 19.25 22.800003C 19.417 23.234003 19.533 23.783003 19.6 24.450003C 19.666 25.050003 19.817 25.583002 20.050001 26.050003C 20.183 26.350002 20.433 26.834003 20.800001 27.500004C 21.234001 28.366003 21.417002 29.566004 21.35 31.100004C 21.317 31.967005 21.217001 33.201004 21.050001 34.800003C 20.984001 36.533005 20.617 37.700005 19.95 38.300003C 19.783 38.434002 19.25 38.700005 18.35 39.100002C 17.683 39.367 17.317001 39.784004 17.25 40.350002C 16.683 40.417004 16.2 40.083004 15.8 39.350002C 15.234 38.384003 14.834001 37.833004 14.6 37.701004C 14.6 39.135002 14.867001 40.234005 15.400001 41.001003C 14.467001 40.801003 13.483001 40.234005 12.450001 39.301003C 11.550001 38.468002 10.833001 37.568 10.300001 36.601C 10.100001 36.202003 9.883001 35.251003 9.650002 33.751003C 9.450002 32.418003 9.150002 31.567003 8.750002 31.201004C 8.617002 32.400005 8.700002 33.850002 9.000002 35.550003C 9.267002 37.217003 9.650002 38.616005 10.150002 39.750004C 9.617002 39.517002 8.9330015 38.983006 8.100001 38.150005L8.100001 38.150005L8.250001 39.750004C 7.550001 39.517002 6.850001 39.000004 6.150001 38.200005C 6.150001 38.634003 6.283001 39.333004 6.550001 40.300003C 5.8170013 39.866005 5.117001 39.067 4.4500012 37.901005C 3.7970014 36.790005 3.4630013 35.840004 3.4500012 35.050003L3.4500012 35.050003L3.4000013 38.100002C 3.5910013 38.609 3.8080013 39.068 4.050001 39.475002zM6.274999 41.85L5.849999 41.55C 5.664999 41.381 5.473999 41.189 5.274999 40.975C 5.5099993 41.036 5.734999 41.127 5.9499993 41.25C 6.1179996 41.307 6.393999 41.373 6.774999 41.45C 6.551999 41.544003 6.3849993 41.677002 6.274999 41.850002zM20.724998 43.5C 20.718998 43.398 20.71 43.299 20.699999 43.2C 20.672998 42.99 20.657 42.765 20.65 42.525C 20.646 42.276 20.654 42.017002 20.675 41.75C 20.708 41.329 20.765999 40.879 20.849998 40.4C 21.082998 40.266003 21.482998 40.049 22.05 39.75C 23.25 39.017 24.116999 38.167 24.65 37.2C 24.517 37.3 24.317 37.349 24.05 37.349C 23.717 37.383 23.5 37.416 23.4 37.45C 23.366999 36.983 23.584 36.417 24.05 35.75C 24.317 35.384 24.717 34.85 25.25 34.15C 25.282 34.104 25.316 34.054 25.35 34C 24.411001 37.146 24.378 39.446 25.25 40.9L25.25 40.9L25.5 40.2C 26.033 41.033 26.333 42.066 26.4 43.3C 27.3 43.366 28.032999 43.25 28.6 42.95C 29.201 42.65 29.75 42.099 30.25 41.3C 30.45 41 30.65 40.35 30.85 39.35C 31.517 38.150997 31.984001 37.233997 32.25 36.6C 32.65 35.566998 32.833 33.8 32.8 31.3C 32.733997 28.467 32.167 27.099998 31.099998 27.199999L31.099998 27.199999L28.8 27.4C 28.5 27.661999 28.208 27.977999 27.925 28.348999C 28.210999 27.755 28.369 27.304998 28.401 26.998999C 27.734 27.665998 27.251 28.081999 26.950998 28.248999C 27.016998 27.682999 27.166998 26.881998 27.401 25.848999C 27.668 24.748999 27.835 23.932 27.901 23.398998C 28.101 23.465998 28.533998 23.481998 29.200998 23.448997C 29.766998 23.448997 30.183998 23.514997 30.450998 23.648998C 30.516998 23.682 30.634998 23.881998 30.800999 24.248999C 30.935 24.616 31.100998 24.831999 31.300999 24.898998C 31.533998 25.031998 31.967999 25.031998 32.600998 24.898998C 33.234997 24.798998 33.668 24.798998 33.901997 24.898998C 34.067997 24.998999 34.317997 25.315998 34.651997 25.848999C 34.984997 26.414999 35.267998 26.782 35.501995 26.949C 37.101994 27.949 38.234997 28.899 38.901997 29.799C 39.734997 30.9 40.184998 32.483 40.251995 34.549C 40.317997 36.349 40.117996 37.966 39.651997 39.4C 39.451996 40 39.334995 40.816 39.300995 41.849003C 39.234993 43.183002 39.167995 44.016003 39.100994 44.349003C 38.867992 45.950005 38.384995 47.116 37.651993 47.849003C 37.08499 48.383003 36.017994 48.883003 34.451992 49.349003C 34.08499 49.483 33.534992 49.783 32.80199 50.249004C 32.16899 50.649006 31.60199 50.865005 31.10199 50.899006C 30.40299 50.932007 29.73599 50.682007 29.10199 50.149006C 28.49999 49.616005 28.13399 49.000008 27.99999 48.300007C 27.95399 48.544006 27.87799 48.744007 27.77499 48.90101C 27.73199 48.800007 27.689991 48.71701 27.64999 48.65101C 27.58599 48.715008 27.42699 48.94001 27.17499 49.326008C 27.07499 49.343006 26.96699 49.350006 26.849989 49.350006C 26.21699 49.317005 25.61699 48.984005 25.04999 48.350006C 24.31699 47.583008 23.88299 46.401005 23.74999 44.800007C 23.74999 44.467007 23.76699 43.167007 23.79999 40.90101C 23.56699 41.46701 23.43299 42.23401 23.39999 43.201008C 23.39999 43.73401 23.38299 44.534008 23.34999 45.600006C 22.74999 45.667007 22.432991 45.017006 22.39999 43.651005C 22.49999 42.117004 22.53299 41.168003 22.49999 40.800003C 21.99999 40.901005 21.66699 41.333004 21.49999 42.100002C 21.33299 42.901 21.08299 43.367 20.74999 43.500004L20.74999 43.500004L20.72499 43.500004zM20.849998 44.075C 20.991 44.449 21.156998 44.907 21.349998 45.45C 21.538998 45.978 21.729998 46.445 21.925 46.849C 21.647999 46.375 21.414 45.892 21.224998 45.399998C 21.066998 44.982998 20.941998 44.557 20.849998 44.124996L20.849998 44.124996L20.849998 44.074997zM7.5999985 22C 7.4329987 21.033 7.3829985 20.317 7.4499984 19.85L7.4499984 19.85L6.5999985 19.65C 6.3669987 20.217 6.1659985 21.117 5.9999986 22.35C 5.8339987 23.583 5.6329985 24.5 5.3999987 25.1C 5.0999985 25.833 4.916999 26.967001 4.8499985 28.5C 4.7499986 30.066 4.5669985 31.2 4.2999983 31.9C 4.7999983 31.167 5.083998 30.233 5.149998 29.098999C 5.216998 30.065998 5.499998 31.866 5.999998 34.5C 6.3329983 33.866 6.499998 32.866 6.499998 31.5C 6.532998 30.033 6.649998 29.017 6.849998 28.45C 6.915998 28.550001 7.116998 28.733002 7.449998 29C 7.6499977 28.467 7.765998 27.684 7.799998 26.65C 7.8339977 25.517 7.849998 24.717 7.849998 24.25C 7.882998 23.783 7.799998 23.033 7.599998 22zM9.499998 24.7C 9.466998 26.800001 9.482998 28.533 9.549998 29.900002C 9.649999 29.733002 9.882998 29.45 10.249998 29.049002C 10.482998 29.782001 10.8169985 30.900002 11.249998 32.4C 11.682998 33.7 12.232998 34.766003 12.899998 35.599003C 13.0999975 35.200005 13.166998 34.483 13.0999975 33.450005C 13.032997 32.417007 13.082997 31.700005 13.249997 31.300005C 14.216997 32.734005 15.066998 33.517006 15.799997 33.651005C 16.166998 32.550003 16.333998 31.050005 16.299997 29.151005C 16.266996 27.384005 16.083998 25.867004 15.749997 24.601006C 15.3829975 23.368006 14.749997 22.201006 13.8499975 21.101006C 12.749997 19.801006 11.6659975 19.184006 10.5999975 19.251005L10.5999975 19.251005L9.549997 19.451006C 9.549997 20.617006 9.532997 22.367006 9.499997 24.700006zM27.624998 50.9C 27.514997 50.872 27.406998 50.847 27.299997 50.825L27.299997 50.825L27.324997 50.8C 27.424997 50.833 27.524998 50.866 27.624996 50.899998z" stroke="none" fill="#D0B989" fill-rule="nonzero" />
    <path d="M22.6 13.85C 22.296 13.354 21.813 12.971001 21.15 12.700001C 19.883 12.166 18 11.900001 15.5 11.900001C 12.148 11.900001 9.573 12.334001 7.775 13.200001C 7.649 13.264001 7.524 13.331 7.4 13.400001C 8.095 12.907001 8.845 12.482 9.65 12.125001L9.65 12.125001L15.099999 10.750001C 15.933 10.679001 16.717 10.646001 17.449999 10.650001L17.449999 10.650001L17.974998 10.675C 19.790998 10.742001 21.315998 11.067 22.55 11.650001C 22.733 11.735001 22.9 11.818001 23.05 11.900001C 22.848 12.299001 22.715 12.715 22.65 13.150001C 22.614 13.38 22.597 13.614 22.6 13.85zM23.325 16C 23.609001 16.458 23.975 16.917 24.425001 17.375C 24.702002 19.966 25.327002 21.857 26.300001 23.05C 26.705002 23.549 27.080002 24.023998 27.425001 24.474998C 27.419 24.498999 27.410002 24.523998 27.400002 24.55L27.400002 24.55L27.250002 24.949999C 27.188002 25.082998 27.122002 25.232998 27.050001 25.4C 26.741001 24.909 26.407001 24.409 26.050001 23.9C 25.917002 23.699999 25.584002 23.3 25.050001 22.699999C 24.584002 22.165998 24.267002 21.717 24.1 21.349998C 23.5 20.016998 23.166 18.266998 23.1 16.099998C 23.086 15.894999 23.069 15.703999 23.050001 15.524999C 23.133001 15.681998 23.224 15.839998 23.325 15.999999zM25.875 50.4C 25.457 50.29 25.082 50.207 24.75 50.15C 24.786 50.135002 24.827 50.127003 24.875 50.125C 25.044 50.082 25.286 50.074 25.6 50.1C 26 50.1 26.283 50.066998 26.45 50C 26.683 49.9 26.916 49.684 27.150002 49.35L27.150002 49.35L27.175001 49.326C 27.427002 48.94 27.586 48.716 27.650002 48.651C 27.690002 48.717003 27.732002 48.8 27.775002 48.901C 27.832 49.06 27.890001 49.260002 27.95 49.501C 28.016 49.901 28.116001 50.168 28.25 50.301C 28.384 50.468 28.616 50.617 28.95 50.751C 29.150002 50.817 29.433 50.901 29.800001 51.001C 30.800001 51.534 31.35 51.817 31.45 51.850998C 31.683 51.918 31.967001 51.918 32.3 51.850998C 32.5 51.817997 32.783 51.767998 33.151 51.702C 33.717003 51.669 34.467003 51.735 35.401 51.902C 36.434002 52.068 37.168 52.152 37.600002 52.152C 38.028004 52.13 38.478 52.071 38.951004 51.976C 39.180004 51.924004 39.413006 51.867 39.651005 51.801003C 39.817005 51.768 40.451004 51.551003 41.550003 51.152004L41.550003 51.152004L41.600002 51.152004C 41.822002 50.955006 42.038002 50.788006 42.250004 50.652004C 42.483006 50.518005 42.717003 50.351006 42.950005 50.152004C 43.150005 50.018005 43.400005 49.919003 43.700005 49.851006C 43.766006 49.851006 43.983006 49.935005 44.349003 50.101006C 44.683002 50.268005 44.950005 50.301006 45.15 50.202007C 45.583 50.035007 45.917 49.452007 46.15 48.452007C 46.349003 47.38601 46.5 46.702007 46.599003 46.402008C 46.733 46.06801 47.116 45.402008 47.749004 44.402008C 48.282005 43.535007 48.615005 42.81801 48.749004 42.252007C 48.982006 41.052006 48.832005 39.535007 48.299004 37.702007C 48.099003 37.035007 47.716003 35.535007 47.150005 33.202007C 46.716007 31.335007 46.283005 29.835007 45.849007 28.702007C 45.45001 27.636007 45.183006 26.969007 45.049007 26.702007C 44.65001 26.002007 44.133007 25.535007 43.49901 25.302008C 42.83201 25.236008 42.36501 25.185007 42.099007 25.152008C 41.633007 25.119007 41.383007 24.769009 41.349007 24.102009C 40.683006 24.069008 39.883007 23.95201 38.95001 23.752008C 37.750008 23.45201 36.95001 23.269009 36.550007 23.20201C 35.217007 23.168009 34.20001 23.102009 33.500008 23.002008C 32.229008 22.839008 31.437008 22.37201 31.125008 21.602009C 31.365007 21.700008 31.607008 21.791008 31.850008 21.877008L31.850008 21.877008L33.375008 22.377008C 36.472008 23.283009 39.88001 23.60801 43.600006 23.352009L43.600006 23.352009L43.925007 23.32701C 44.010006 23.31901 44.093006 23.311008 44.175007 23.30201L44.175007 23.30201L48.07501 22.77701C 48.125008 22.76801 48.175007 22.75901 48.224007 22.75201C 48.576008 22.68401 48.917007 22.60901 49.24901 22.52701C 48.737007 24.79601 48.854008 27.55501 49.599007 30.80201C 50.900005 36.43601 51.599007 39.66901 51.70001 40.50201C 51.730007 40.83801 51.74701 41.17101 51.750008 41.50201C 51.805008 43.10001 51.604008 44.55001 51.15001 45.85201C 50.98501 46.312008 50.79401 46.75301 50.57501 47.17701C 50.363007 47.55901 50.13001 47.92501 49.875008 48.27801C 49.83901 48.32001 49.806007 48.36201 49.77501 48.40301C 49.71801 48.477013 49.660007 48.55201 49.59901 48.62801C 48.65201 49.784008 47.40201 50.76001 45.84901 51.55301C 45.82401 51.55801 45.79801 51.56601 45.77501 51.57801C 45.74601 51.58401 45.72101 51.59301 45.70001 51.60201C 45.56601 51.33501 45.36601 51.16901 45.099007 51.10201C 44.83201 51.036007 44.58201 51.119007 44.349007 51.35201C 43.449005 52.076008 42.349007 52.583008 41.049007 52.87701C 40.778008 52.95901 40.510006 53.03401 40.24901 53.10201C 38.516006 53.46901 36.666008 53.46901 34.69901 53.10201C 34.61301 53.08701 34.521008 53.07101 34.424007 53.05201C 34.071007 52.979008 33.67101 52.87801 33.224007 52.75201C 32.97801 52.68901 32.719006 52.61301 32.45001 52.52701C 32.279007 52.483013 32.10301 52.43301 31.925009 52.37701C 31.821009 52.34501 31.713009 52.31201 31.600008 52.27701C 31.080008 52.11101 30.514008 51.920013 29.901009 51.70201C 29.85101 51.686012 29.800009 51.67001 29.751009 51.65201C 28.98001 51.367012 28.272009 51.117012 27.626009 50.90201C 27.526009 50.86801 27.426008 50.83501 27.32601 50.80101C 26.79301 50.63701 26.310009 50.50401 25.87501 50.40001zM11.175 41.925003C 11.401 41.998005 11.643001 42.107002 11.900001 42.250004C 12.900001 42.783005 13.6 43.033005 14 43.000004C 14.041 43.000004 14.083 42.991005 14.125 42.975002C 14.236 42.961002 14.361 42.919003 14.5 42.850002C 14.667 42.750004 14.833 42.717003 15 42.750004C 15.095 42.750004 15.312 42.825005 15.65 42.975002C 15.776 43.038002 15.927 43.114002 16.1 43.201004C 16.335001 43.295006 16.636 43.370003 17 43.426003C 17.33 43.376003 17.813 43.351 18.45 43.351C 19.012001 43.289 19.353 42.989002 19.475 42.452003C 19.485 42.424004 19.494 42.390003 19.5 42.351C 19.585 42.372 19.669 42.389 19.75 42.402C 20.05 42.468002 20.35 42.509 20.65 42.527C 20.657 42.767002 20.673 42.992 20.699999 43.202C 20.71 43.301 20.718998 43.4 20.724998 43.502C 20.609 43.434 20.533998 43.367 20.499998 43.302C 20.594997 43.491997 20.711998 43.751 20.849998 44.077L20.849998 44.077L20.849998 44.127C 20.71 44.156998 20.567999 44.183 20.425 44.202C 20.42 44.238 20.411 44.272 20.4 44.302C 19.767 44.535 19.182999 44.635998 18.65 44.601997C 18.536 44.601997 18.369999 44.585 18.15 44.552C 18.097 44.547997 18.046999 44.547997 18 44.552C 17.986 44.533997 17.97 44.517998 17.95 44.502C 17.707 44.447998 17.407001 44.372997 17.050001 44.277C 17.019001 44.269 16.986002 44.261 16.95 44.252C 16.516 44.152 15.883 44.152 15.050001 44.252C 14.1830015 44.318 13.550001 44.302 13.150002 44.202C 13.017001 44.169 12.417002 43.885998 11.350001 43.350998C 11.117002 43.251 10.817001 43.168 10.450002 43.100998C 10.050002 43.034996 9.750002 42.968 9.550002 42.901997C 9.350002 42.834995 9.100002 42.684998 8.800002 42.451996C 8.467002 42.251995 8.200002 42.117996 8.000002 42.051994C 7.833002 42.018993 7.533002 42.018993 7.100002 42.051994C 6.7000017 42.082993 6.400002 42.065994 6.2000017 41.999996C 6.2210016 41.945995 6.2460017 41.895996 6.2750015 41.849995C 6.3850017 41.676994 6.5520015 41.543995 6.7750015 41.450996C 7.0690017 41.333996 7.4610014 41.283997 7.9500017 41.300995C 8.817001 41.333996 9.4330015 41.550995 9.800002 41.950996C 10.192002 41.765995 10.6500025 41.756996 11.175002 41.924995z" stroke="none" fill="#6A5D3D" fill-rule="nonzero" />
    <path d="M26.075 27.5C 26.477001 26.662 26.802 25.962 27.050001 25.4C 27.122002 25.233 27.189001 25.084 27.250002 24.949999L27.250002 24.949999L27.400002 24.55C 27.410002 24.524 27.419 24.498999 27.425001 24.474998L27.425001 24.474998L27.800001 23.349998L27.900002 23.124998L27.95 22.999998L27.900002 23.399998C 27.834002 23.932999 27.667002 24.749998 27.400002 25.849998C 27.167002 26.883 27.017002 27.682999 26.95 28.249998C 27.25 28.082998 27.733002 27.666998 28.400002 26.999998C 28.369001 27.305998 28.211002 27.755999 27.924002 28.349998C 28.207 27.978998 28.499002 27.661999 28.799002 27.401L28.799002 27.401L31.099 27.200998C 32.166 27.099998 32.733 28.467999 32.799 31.300999C 32.832 33.801 32.65 35.568 32.249 36.600998C 31.982 37.234997 31.516 38.151997 30.849 39.350998C 30.650002 40.350998 30.45 41.001 30.249 41.301C 29.749 42.100998 29.199001 42.652 28.599 42.951C 28.033 43.251 27.299002 43.367 26.399 43.301C 26.333 42.067997 26.032 41.034 25.499 40.201L25.499 40.201L25.249 40.901C 24.377 39.447002 24.41 37.147 25.349 34.001C 25.315 34.056 25.281 34.105 25.249 34.151C 24.716 34.850002 24.316 35.384003 24.049 35.751C 23.583 36.418 23.366 36.984 23.399 37.451C 23.499 37.418 23.716 37.385 24.049 37.35C 24.316 37.35 24.515999 37.3 24.649 37.201C 24.116001 38.168 23.249 39.017 22.049 39.751C 21.483 40.051 21.083 40.267998 20.848999 40.401C 21.216 38.267002 22.265999 35.384003 23.998999 31.751001C 24.841 30.068 25.532999 28.651001 26.074999 27.500002L26.074999 27.500002L26.075 27.5zM9.5 24.7C 9.533 22.367 9.55 20.617 9.55 19.45L9.55 19.45L10.6 19.25C 11.666 19.183 12.75 19.8 13.85 21.1C 14.75 22.2 15.383 23.367 15.75 24.6C 16.083 25.867 16.267 27.384 16.3 29.150002C 16.334 31.049002 16.167 32.549 15.799999 33.65C 15.066999 33.516003 14.216999 32.733 13.249999 31.299002C 13.082999 31.699001 13.032999 32.416 13.099999 33.449C 13.165999 34.482002 13.099999 35.199 12.9 35.598C 12.233 34.765 11.683 33.699 11.25 32.399C 10.817 30.898998 10.483 29.781998 10.25 29.047998C 9.883 29.447998 9.65 29.731998 9.55 29.898998C 9.483 28.532999 9.467 26.8 9.5 24.699999zM7.6 22C 7.7999997 23.033 7.883 23.783 7.85 24.25C 7.85 24.717 7.8329997 25.517 7.7999997 26.65C 7.7669997 27.684 7.6499996 28.467 7.45 29C 7.1169996 28.733 6.916 28.55 6.85 28.45C 6.65 29.016 6.533 30.033 6.5 31.5C 6.5 32.866 6.333 33.866 6 34.5C 5.5 31.866 5.217 30.066 5.15 29.1C 5.083 30.233 4.8 31.167 4.3 31.9C 4.5670004 31.199999 4.75 30.066 4.8500004 28.5C 4.9160004 26.967 5.1000004 25.833 5.4000006 25.1C 5.6330004 24.5 5.8340006 23.583 6.0000005 22.35C 6.1660004 21.117 6.3670006 20.217001 6.6000004 19.65L6.6000004 19.65L7.4500003 19.85C 7.3830004 20.317001 7.433 21.033 7.6000004 22z" stroke="none" fill="#E2CC9D" fill-rule="nonzero" />
    <path d="M55.4 12.975L55.599003 13.375C 54.283005 12.349 53.317 11.657 52.700005 11.3C 51.500004 10.6 50.366005 10.283 49.300003 10.35C 48.634003 10.416 48.083004 10.633 47.651005 11C 47.184006 11.4 46.918003 11.917 46.850006 12.55C 46.784004 13.084001 46.717007 13.417 46.651005 13.55C 46.584003 13.683001 46.367004 13.917 46.001003 14.25C 45.961002 14.285 45.919003 14.319 45.876003 14.35C 45.371002 14.802 44.980003 15.152 44.701004 15.400001C 44.234005 15.867001 43.901005 16.334 43.701004 16.800001C 43.668003 16.900002 43.534004 17.433 43.301003 18.400002C 43.135002 19.033 42.867004 19.517002 42.501003 19.850002C 41.801003 20.517002 40.784004 20.883003 39.451004 20.950003C 37.117004 21.150003 33.968002 20.883003 30.001003 20.150003L30.001003 20.150003L29.951004 20.150003C 29.513004 20.057003 29.088003 19.941004 28.676004 19.800003C 27.617004 19.445004 26.626005 18.911003 25.701004 18.200003C 25.235004 17.834003 24.801004 17.434002 24.401005 17.000002C 23.871004 16.427002 23.404005 15.794002 23.001005 15.100002C 22.914005 14.951002 22.830006 14.8010025 22.751005 14.6500025C 22.732006 14.5840025 22.715006 14.517002 22.701006 14.450003C 22.664005 14.261003 22.639006 14.078003 22.626005 13.9000025C 22.596004 13.210003 22.755005 12.5510025 23.101006 11.925002C 23.227005 11.678002 23.386005 11.437002 23.576006 11.200002C 23.598005 11.166001 23.623007 11.133001 23.651007 11.100001C 23.649006 11.134002 23.649006 11.167002 23.651007 11.200002C 23.629007 11.475001 23.604006 11.817001 23.576006 12.225001C 23.551006 12.500001 23.526007 12.8080015 23.501005 13.150002C 23.601006 13.517001 23.868006 14.033002 24.301004 14.700002C 24.325005 14.740002 24.350004 14.7820015 24.376005 14.825002C 24.393005 14.851002 24.409006 14.876001 24.426004 14.900002C 24.526005 15.052002 24.634005 15.202002 24.751005 15.350001C 25.370005 16.12 26.253006 16.87 27.401005 17.600002C 27.830006 17.886002 28.288004 18.144003 28.776005 18.375002C 29.544004 18.735003 30.385004 19.026001 31.300005 19.250002C 32.800003 19.650002 34.200005 19.800001 35.500004 19.700003C 36.066 19.666002 36.684006 19.500002 37.350002 19.200003C 37.717003 19.000002 38.284004 18.717003 39.050003 18.350002C 39.450005 18.183002 40.000004 17.967003 40.700005 17.700003C 41.200005 17.400003 41.516006 16.950003 41.650005 16.350002C 41.683006 16.150002 41.700005 15.633002 41.700005 14.800002C 41.667004 14.133002 41.750004 13.6170025 41.950005 13.250002C 42.065006 13.076002 42.333004 12.818002 42.750004 12.475002C 42.813004 12.415002 42.880005 12.357002 42.950005 12.300002C 43.417004 11.933002 43.700005 11.567002 43.800003 11.200002C 43.866005 10.867002 43.616005 9.833002 43.050003 8.100002C 42.583004 6.700002 42.700005 5.8670025 43.4 5.6000023C 44.033 5.3670025 44.883003 5.3830023 45.95 5.6500025C 46.657 6.0040026 47.348 6.3790026 48.025 6.7750025C 49.22 7.489002 50.353 8.273003 51.424 9.125002C 51.843998 9.458002 52.252 9.799002 52.65 10.150002C 53.800003 11.150002 54.717003 12.092002 55.4 12.975001L55.4 12.975001L55.4 12.975z" stroke="none" fill="#825E28" fill-rule="nonzero" />
    <path d="M51.425 9.125C 53.189 10.469 54.514 11.752 55.401 12.975C 54.717003 12.092 53.8 11.150001 52.651 10.150001C 52.253002 9.799001 51.845 9.458 51.425 9.125001L51.425 9.125001L51.425 9.125zM22.75 14.65L22.975 15.325C 22.997 15.375 23.022001 15.425 23.050001 15.474999C 23.128 15.648999 23.220001 15.823999 23.325 15.999999C 23.224 15.839999 23.133001 15.681999 23.050001 15.524999C 22.773 14.963999 22.623001 14.404999 22.6 13.849998C 22.597 13.613998 22.614 13.379998 22.65 13.149999C 22.715 12.714998 22.848 12.298999 23.05 11.899999C 23.185 11.660998 23.342999 11.427999 23.525 11.199999C 23.614 11.093999 23.706 10.984999 23.8 10.874999C 23.897999 10.785999 23.998 10.693999 24.099998 10.599999L24.099998 10.599999L23.949999 10.999999L23.999998 10.999999C 24.683998 10.975999 25.683998 10.566999 26.999998 9.774999C 27.352999 9.5599985 27.727999 9.317999 28.124998 9.049998C 28.149998 9.0339985 28.174997 9.016998 28.199999 8.999998C 28.592999 8.732998 28.967999 8.507998 29.324999 8.324998L29.324999 8.324998L29.349998 8.299998C 30.609 7.6349983 31.675 7.4189982 32.55 7.649998C 32.616 7.682998 33.083 7.9169984 33.95 8.349998C 34.516 8.682999 35.05 8.766998 35.55 8.599998C 39.184 6.4669986 40.917 4.9669986 40.75 4.0999985C 40.39 4.0939984 40.015 4.1019983 39.625 4.1249986C 40.374 4.0599985 41.065 4.0679984 41.7 4.1499987C 43.447002 4.3809986 45.555 5.2559986 48.025 6.7749987C 47.348003 6.3789988 46.657 6.0039988 45.95 5.6499987C 44.884003 5.3829985 44.033 5.3669987 43.4 5.5999985C 42.7 5.8669987 42.583 6.6999984 43.049 8.099998C 43.614998 9.832998 43.864998 10.866999 43.799 11.199999C 43.699 11.5669985 43.416 11.932999 42.949 12.299999C 42.879 12.356999 42.812 12.414999 42.749 12.474999C 42.332 12.818 42.064 13.075999 41.949 13.249999C 41.749 13.616999 41.666 14.132999 41.699 14.799999C 41.699 15.632999 41.682003 16.15 41.649002 16.349998C 41.515003 16.949999 41.199 17.399998 40.699 17.699999C 39.999 17.967 39.449 18.182999 39.049 18.349998C 38.282 18.717 37.716 18.999998 37.349 19.199999C 36.683 19.499998 36.065998 19.665998 35.499 19.699999C 34.199 19.8 32.799 19.65 31.299 19.249998C 30.383999 19.025997 29.542 18.734999 28.775 18.374998C 28.286999 18.143997 27.828 17.885998 27.4 17.599998C 26.251999 16.869999 25.369 16.119999 24.75 15.349998C 24.632 15.201999 24.524 15.051998 24.425 14.899999C 24.407999 14.8759985 24.391998 14.850999 24.375 14.824999C 24.349 14.781999 24.324 14.739999 24.3 14.699999C 23.866999 14.032999 23.599998 13.515999 23.5 13.149999C 23.525 12.807999 23.55 12.499999 23.575 12.224998C 23.602001 11.8169985 23.627 11.474998 23.650002 11.199999C 23.648 11.166999 23.648 11.133999 23.650002 11.099998C 23.623001 11.132998 23.597002 11.165998 23.575 11.199999C 23.385 11.435999 23.226 11.677999 23.1 11.924999C 22.754 12.551 22.595001 13.209999 22.625 13.9C 22.638 14.078 22.663 14.261 22.7 14.45C 22.714 14.517 22.731 14.583 22.75 14.65zM49.25 22.525C 48.918 22.607 48.576 22.682 48.225 22.75C 48.574997 22.676 48.916 22.592 49.25 22.5C 49.393 22.472 49.534 22.438 49.675 22.4C 49.802998 22.368 49.927998 22.335 50.05 22.3C 49.787 22.38 49.521 22.456 49.25 22.525z" stroke="none" fill="#976B2A" fill-rule="nonzero" />
    <path d="M31.85 21.875C 31.608 21.789 31.366001 21.698 31.125 21.6C 30.245 21.246 29.395 20.838001 28.575 20.375C 27.463001 19.764 26.405 19.055 25.400002 18.25C 25.045002 17.959 24.720001 17.667 24.425001 17.375C 23.976002 16.917 23.609001 16.458 23.325 16C 23.220001 15.824 23.128 15.649 23.050001 15.475C 23.022001 15.425 22.997002 15.375 22.975 15.325001L22.975 15.325001L22.75 14.650001C 22.829 14.801001 22.913 14.951 23 15.1C 23.403 15.794001 23.87 16.427 24.4 17C 24.8 17.435 25.234 17.834 25.699999 18.2C 26.623999 18.911001 27.616 19.444 28.675 19.800001C 29.087 19.941002 29.512 20.057001 29.949999 20.150002L29.949999 20.150002L29.999998 20.150002C 33.967 20.883001 37.115997 21.150002 39.449997 20.95C 40.782997 20.883001 41.799995 20.516 42.499996 19.85C 42.865997 19.517 43.133995 19.033 43.299995 18.4C 43.532997 17.432999 43.666996 16.9 43.699997 16.8C 43.899998 16.334 44.232998 15.867 44.699997 15.4C 44.977997 15.151999 45.369995 14.802 45.874996 14.349999C 45.917995 14.318999 45.959995 14.285 45.999996 14.249999C 46.365997 13.916999 46.582996 13.682999 46.649998 13.549999C 46.716 13.416999 46.782997 13.084 46.849 12.549999C 46.916 11.916999 47.183 11.4 47.649998 10.999999C 48.082996 10.632999 48.633 10.416999 49.298996 10.349999C 50.364998 10.282999 51.498997 10.599999 52.698997 11.299999C 53.315998 11.657 54.281998 12.348999 55.597996 13.374999C 55.628994 13.396999 55.662994 13.421999 55.698997 13.449999C 56.198997 14.216999 56.515 14.899999 56.649 15.499999C 57.078 17.272 56.461 18.796999 54.797997 20.074999C 55.456997 19.547998 55.956997 18.971998 56.297997 18.349998L56.297997 18.349998L55.999996 18.3C 55.999996 17.567 55.949997 17.099998 55.849995 16.9C 55.683994 16.567 55.316994 16.449999 54.749996 16.55C 54.216995 16.682999 53.516994 17.067 52.649998 17.699999C 51.383 18.633 50.732998 19.099998 50.699997 19.099998C 50.283997 19.368998 49.900997 19.559998 49.549995 19.675C 49.432995 19.706999 49.315994 19.731998 49.199997 19.75L49.199997 19.75L47.549995 19.85C 46.949997 19.916 46.049995 20.1 44.849995 20.4C 43.683994 20.733 42.783997 20.917 42.150993 20.949999C 40.849995 21.082998 39.233994 21.116999 37.299995 21.05C 35.133995 20.949999 33.516994 20.883 32.449997 20.849998C 31.760998 20.832998 31.059998 20.766998 30.348997 20.649998C 29.773996 20.549997 29.190998 20.416998 28.598997 20.249998C 28.480997 20.217999 28.364998 20.184998 28.248997 20.149998C 28.357996 20.214998 28.466997 20.281998 28.573997 20.349998C 29.395998 20.812998 30.246998 21.221998 31.123997 21.574999C 31.361998 21.682999 31.603996 21.782999 31.849997 21.874998L31.849997 21.874998L31.85 21.875z" stroke="none" fill="#755729" fill-rule="nonzero" />
    <path d="M54.8 20.075C 53.966 20.725 52.883 21.300001 51.55 21.800001C 51.071 21.982 50.571 22.148 50.05 22.300001C 49.927998 22.335001 49.802998 22.368002 49.675 22.400002C 49.534 22.439001 49.392998 22.472002 49.25 22.500002C 48.916 22.592001 48.574 22.676003 48.225 22.750002C 48.175 22.757002 48.125 22.766003 48.076 22.775002L48.076 22.775002L44.176 23.300001C 44.093998 23.309002 44.010998 23.318 43.926 23.325L43.926 23.325L43.6 23.35C 39.879997 23.606 36.472 23.281 33.375 22.375L33.375 22.375L31.85 21.875C 31.604 21.783 31.363 21.683 31.125 21.575C 30.248 21.221 29.397 20.813002 28.575 20.35C 28.468 20.282 28.359001 20.215 28.25 20.15C 28.365 20.185 28.481 20.218 28.6 20.25C 29.192001 20.417 29.775 20.55 30.35 20.65C 31.061 20.767 31.761 20.833 32.451 20.85C 33.517 20.883001 35.135002 20.95 37.301 21.050001C 39.235 21.117 40.850998 21.084002 42.152 20.95C 42.785 20.916 43.685 20.733002 44.851 20.400002C 46.051003 20.100002 46.952003 19.917002 47.551003 19.850002L47.551003 19.850002L49.201004 19.750002C 49.316006 19.732002 49.433002 19.707003 49.551003 19.675001C 49.903004 19.561 50.285004 19.369001 50.701004 19.1C 50.734005 19.1 51.385002 18.633 52.651005 17.7C 53.517006 17.067001 54.217003 16.683 54.751003 16.550001C 55.317 16.45 55.685005 16.567001 55.851 16.900002C 55.95 17.100002 56 17.567001 56 18.300001L56 18.300001L56.3 18.35C 55.959 18.973 55.459 19.548 54.8 20.075z" stroke="none" fill="#56401E" fill-rule="nonzero" />
</g>
</svg>